<?xml version="1.0" standalone="no"?>
<!DOCTYPE svg PUBLIC "-//W3C//DTD SVG 20010904//EN"
 "http://www.w3.org/TR/2001/REC-SVG-20010904/DTD/svg10.dtd">
<svg version="1.0" xmlns="http://www.w3.org/2000/svg"
 width="326.000000pt" height="326.000000pt" viewBox="0 0 326.000000 326.000000"
 preserveAspectRatio="xMidYMid meet">
<metadata>
Created by potrace 1.14, written by Peter Selinger 2001-2017
</metadata>
<g transform="translate(0.000000,326.000000) scale(0.100000,-0.100000)"
fill="#000000" stroke="none">
<path d="M1228 2405 c-2 -2 -37 -6 -78 -10 -44 -4 -107 -19 -154 -37 -159 -61
-242 -178 -421 -598 -32 -74 -73 -168 -91 -208 -19 -40 -34 -75 -34 -77 0 -2
-12 -30 -26 -62 -15 -32 -32 -71 -39 -88 -7 -16 -25 -57 -40 -90 -37 -82 -50
-112 -75 -170 -23 -53 -27 -63 -84 -189 -21 -46 -32 -82 -27 -86 12 -7 374 -4
446 4 137 15 259 92 358 228 15 20 27 41 27 47 0 6 4 11 8 11 10 0 56 98 158
334 40 93 77 173 82 178 5 5 34 -69 71 -184 35 -106 72 -218 83 -248 11 -30
21 -60 22 -65 5 -30 60 -125 93 -160 46 -49 107 -95 125 -95 8 0 18 -4 24 -9
5 -6 36 -17 69 -26 51 -13 134 -17 290 -14 34 1 118 20 174 40 153 55 253 182
381 479 35 82 46 108 83 190 13 30 39 89 56 130 18 41 46 103 62 136 16 34 29
65 29 68 0 4 12 33 26 64 14 31 29 66 34 77 5 11 22 49 38 85 16 36 49 110 73
165 24 55 51 116 60 135 10 21 13 37 8 41 -18 11 -442 2 -494 -10 -78 -19
-168 -67 -229 -125 -31 -30 -56 -58 -56 -64 0 -6 -4 -12 -8 -14 -15 -6 -109
-170 -122 -213 -2 -5 -16 -36 -32 -67 -15 -31 -28 -59 -28 -61 0 -3 -12 -31
-27 -63 -15 -33 -28 -61 -28 -64 -1 -3 -9 -23 -19 -45 -10 -22 -22 -51 -28
-65 -9 -23 -10 -23 -19 -7 -6 10 -28 75 -49 145 -70 234 -122 387 -149 436
-54 101 -161 180 -277 206 -43 10 -239 21 -246 15z"/>
</g>
</svg>
